<?xml version="1.0" encoding="utf-8"?>
<!-- Generator: Adobe Illustrator 26.3.0, SVG Export Plug-In . SVG Version: 6.00 Build 0)  -->
<svg version="1.1" id="Capa_1" xmlns="http://www.w3.org/2000/svg" xmlns:xlink="http://www.w3.org/1999/xlink" x="0px" y="0px"
	 viewBox="0 0 35 35" style="enable-background:new 0 0 35 35;" xml:space="preserve">
<style type="text/css">
	.st0{fill:#FAD1CD;}
	.st1{fill:#FAD1CD;stroke:#FAD2CD;stroke-miterlimit:10;}
</style>
<g>
	<path class="st0" d="M30.35,14.09h-8.99v-2.57h8.99V14.09z M32.57,26.93c-0.57,1.67-2.61,3.85-6.55,3.85
		c-3.95,0-7.15-2.22-7.15-7.29c0-5.02,2.99-7.6,7.02-7.6c3.96,0,6.38,2.29,6.9,5.68c0.1,0.65,0.14,1.53,0.12,2.75H22.61
		c0.17,4.12,4.47,4.25,5.89,2.61C28.5,26.93,32.57,26.93,32.57,26.93z M22.7,21.79h6.38c-0.13-1.99-1.46-2.85-3.18-2.85
		C24.01,18.94,22.97,19.93,22.7,21.79z M10.4,30.77h-8.3V11.55h8.93c7.03,0.1,7.17,6.99,3.49,8.87
		C18.96,22.03,19.11,30.77,10.4,30.77z M5.95,19.23h4.6c3.22,0,3.73-3.85-0.4-3.85h-4.2C5.95,15.37,5.95,19.23,5.95,19.23z
		 M10.3,23.08H5.95v3.87h4.29C14.16,26.95,13.92,23.08,10.3,23.08z"/>
</g>
</svg>
