<?xml version="1.0" encoding="utf-8"?>
<!-- Generator: Adobe Illustrator 26.3.0, SVG Export Plug-In . SVG Version: 6.00 Build 0)  -->
<svg version="1.1" id="Capa_1" xmlns="http://www.w3.org/2000/svg" xmlns:xlink="http://www.w3.org/1999/xlink" x="0px" y="0px"
	 viewBox="0 0 35 35" style="enable-background:new 0 0 35 35;" xml:space="preserve">
<style type="text/css">
	.st0{fill:#FAD1CD;}
	.st1{fill:#FAD1CD;stroke:#FAD2CD;stroke-miterlimit:10;}
</style>
<g>
	<g transform="translate(0.000000,1280.000000) scale(0.100000,-0.100000)">
		<path class="st1" d="M109.25,12745.99c-2.9-0.26-7.87-1.11-10.89-1.9c-23.58-6.07-42.14-24.63-48.21-48.21
			c-0.81-3.17-1.63-8.01-1.92-11.3c-0.12-1.57-0.2-25.33-0.2-67.49c0-70.76-0.04-67.82,1.11-74.13
			c3.17-17.25,13.03-32.62,27.39-42.72c10.05-7.06,21.34-11.07,33.83-12.02c4.32-0.32,133.77-0.18,136.15,0.16
			c11.62,1.65,20.35,4.8,29.13,10.47c3.89,2.52,6.52,4.64,10.27,8.33c6.45,6.29,11.05,12.85,14.56,20.84
			c2.7,6.09,4.26,11.84,5.39,19.71c0.34,2.38,0.48,131.84,0.16,136.15c-0.91,11.8-4.54,22.55-10.91,32.17
			c-10.15,15.33-25.86,25.74-43.83,29.05c-6.31,1.15-3.29,1.11-74.53,1.09C140.74,12746.17,110.36,12746.07,109.25,12745.99z
			 M244.5,12723.82c18.7-2.3,33.85-15.63,38.43-33.79c1.39-5.53,1.31-0.58,1.31-73.02c0-57.61-0.04-65.72-0.3-67.81
			c-1.01-7.65-3.91-14.89-8.53-21.12c-1.94-2.62-6.62-7.3-9.24-9.24c-6.23-4.62-13.47-7.52-21.12-8.53
			c-2.1-0.26-10.21-0.3-67.82-0.3c-72.43,0-67.49-0.08-73.02,1.31c-18.21,4.6-31.69,19.97-33.79,38.61
			c-0.16,1.37-0.2,21.48-0.16,68.3l0.06,66.36l0.56,2.78c3.27,16.36,14.6,29.31,30.14,34.43c2.66,0.87,6.96,1.83,9.34,2.08
			C112.2,12724.08,242.9,12724,244.5,12723.82z"/>
		<path class="st1" d="M245.41,12702.96c-5.61-1.31-9.9-5.49-11.28-11.03c-0.46-1.88-0.42-5.14,0.08-7.12
			c2.22-8.71,11.76-13.43,20.07-9.94c2.24,0.93,5.1,3.23,6.37,5.1c3.53,5.2,3.49,12.06-0.12,17.12c-1.8,2.52-4.26,4.34-7.3,5.41
			c-1.51,0.52-2.14,0.61-4.2,0.67C247.46,12703.22,246.19,12703.14,245.41,12702.96z"/>
		<path class="st1" d="M172.99,12681.14c-15.85-1.25-30.14-7.75-41.13-18.76c-10.17-10.15-16.4-22.89-18.42-37.6
			c-0.48-3.57-0.48-12.02,0.02-15.63c1.43-10.51,4.66-19.16,10.31-27.63c8.79-13.21,21.93-22.65,37.05-26.63
			c9.48-2.48,19.81-2.76,29.39-0.79c12.34,2.54,23.4,8.51,32.39,17.53c10.23,10.23,16.44,22.85,18.4,37.42
			c0.44,3.37,0.5,11.9,0.1,15.13c-1.9,15.01-8.15,27.9-18.6,38.33c-10.09,10.07-22.97,16.36-37.42,18.25
			C182.79,12681.08,175.13,12681.3,172.99,12681.14z M181.06,12661.47c8.63-0.73,17.21-4.17,24.1-9.66
			c2.28-1.83,6.03-5.71,7.79-8.07c4.52-6.05,7.28-12.67,8.49-20.27c0.48-3.11,0.48-9.82,0-12.99
			c-3.07-19.59-18.09-34.61-37.68-37.68c-3.09-0.48-10.07-0.48-13.05,0c-14.77,2.38-27.05,11.4-33.52,24.61
			c-6.7,13.64-6.01,29.65,1.84,42.64c3.57,5.89,9.28,11.6,15.17,15.17C162.24,12660.08,171.72,12662.28,181.06,12661.47z"/>
	</g>
</g>
</svg>
