<?xml version="1.0" encoding="utf-8"?>
<!-- Generator: Adobe Illustrator 26.3.0, SVG Export Plug-In . SVG Version: 6.00 Build 0)  -->
<svg version="1.1" id="Capa_1" xmlns="http://www.w3.org/2000/svg" xmlns:xlink="http://www.w3.org/1999/xlink" x="0px" y="0px"
	 viewBox="0 0 35 35" style="enable-background:new 0 0 35 35;" xml:space="preserve">
<style type="text/css">
	.st0{fill:#FAD1CD;}
	.st1{fill:#FAD1CD;stroke:#FAD2CD;stroke-miterlimit:10;}
</style>
<g>
	<path class="st0" d="M2.5,5.85c0-0.97,0.34-1.76,1.01-2.39c0.68-0.63,1.55-0.94,2.64-0.94c1.06,0,1.92,0.31,2.58,0.93
		C9.4,4.09,9.74,4.92,9.74,5.94c0,0.93-0.33,1.7-0.98,2.32C8.08,8.89,7.19,9.21,6.09,9.21H6.06C5,9.21,4.14,8.89,3.48,8.26
		S2.5,6.82,2.5,5.85z M2.87,31.2V11.85H9.3V31.2H2.87z M12.87,31.2h6.43v-10.8c0-0.68,0.08-1.2,0.23-1.56
		c0.27-0.66,0.68-1.21,1.23-1.67c0.55-0.45,1.24-0.68,2.07-0.68c2.16,0,3.24,1.46,3.24,4.37V31.2h6.43V20.1
		c0-2.86-0.68-5.03-2.03-6.5c-1.35-1.48-3.14-2.22-5.36-2.22c-2.49,0-4.43,1.07-5.82,3.21v0.06h-0.03l0.03-0.06v-2.75h-6.43
		c0.04,0.62,0.06,2.54,0.06,5.76C12.92,20.84,12.9,25.36,12.87,31.2z"/>
</g>
</svg>
